<svg xmlns="http://www.w3.org/2000/svg" viewBox="0 0 480 400" fill="none">
  <rect width="480" height="400" rx="20" fill="#EFF6FF"/>
  <rect x="40" y="40" width="400" height="280" rx="16" fill="#F8FAFC" stroke="#CBD5E1" stroke-width="2"/>

  <line x1="70" y1="100" x2="410" y2="100" stroke="#E2E8F0" stroke-width="1"/>
  <line x1="70" y1="160" x2="410" y2="160" stroke="#E2E8F0" stroke-width="1"/>
  <line x1="70" y1="220" x2="410" y2="220" stroke="#E2E8F0" stroke-width="1"/>
  <line x1="70" y1="280" x2="410" y2="280" stroke="#E2E8F0" stroke-width="1"/>

  <rect x="90" y="200" width="40" height="80" rx="6" fill="#BFDBFE"/>
  <rect x="150" y="170" width="40" height="110" rx="6" fill="#93C5FD"/>
  <rect x="210" y="140" width="40" height="140" rx="6" fill="#60A5FA"/>
  <rect x="270" y="120" width="40" height="160" rx="6" fill="#3B82F6"/>
  <rect x="330" y="155" width="40" height="125" rx="6" fill="#2563EB"/>

  <path d="M110 240 Q170 200 230 170 T350 150" stroke="#10B981" stroke-width="3" fill="none" stroke-linecap="round"/>
  <circle cx="350" cy="150" r="6" fill="#10B981"/>

  <text x="110" y="305" text-anchor="middle" font-family="Inter, sans-serif" font-size="11" fill="#94A3B8">Jan</text>
  <text x="170" y="305" text-anchor="middle" font-family="Inter, sans-serif" font-size="11" fill="#94A3B8">Mar</text>
  <text x="230" y="305" text-anchor="middle" font-family="Inter, sans-serif" font-size="11" fill="#94A3B8">Mai</text>
  <text x="290" y="305" text-anchor="middle" font-family="Inter, sans-serif" font-size="11" fill="#94A3B8">Jul</text>
  <text x="350" y="305" text-anchor="middle" font-family="Inter, sans-serif" font-size="11" fill="#94A3B8">Set</text>

  <text x="240" y="68" text-anchor="middle" font-family="Inter, sans-serif" font-size="14" font-weight="600" fill="#1E293B">Evolucao de precos</text>

  <ellipse cx="240" cy="370" rx="100" ry="12" fill="#DBEAFE" opacity="0.5"/>
  <path d="M180 360h120l-8-20H188l-8 20z" fill="#2563EB"/>
  <circle cx="200" cy="362" r="8" fill="#1E293B"/>
  <circle cx="280" cy="362" r="8" fill="#1E293B"/>
</svg>
