<svg xmlns="http://www.w3.org/2000/svg" viewBox="0 0 320 260" fill="none">
  <rect width="320" height="260" rx="16" fill="#EFF6FF"/>
  <rect x="40" y="30" width="240" height="200" rx="14" fill="#fff" stroke="#E2E8F0" stroke-width="2"/>

  <!-- Form fields -->
  <rect x="60" y="55" width="80" height="8" rx="4" fill="#CBD5E1"/>
  <rect x="60" y="75" width="200" height="28" rx="8" fill="#F8FAFC" stroke="#E2E8F0" stroke-width="1.5"/>
  <polygon points="245,89 252,84 252,94" fill="#94A3B8"/>

  <rect x="60" y="115" width="80" height="8" rx="4" fill="#CBD5E1"/>
  <rect x="60" y="135" width="200" height="28" rx="8" fill="#F8FAFC" stroke="#E2E8F0" stroke-width="1.5"/>

  <rect x="60" y="175" width="120" height="36" rx="18" fill="#2563EB"/>
  <text x="120" y="198" text-anchor="middle" font-family="Inter, sans-serif" font-size="11" font-weight="600" fill="#fff">Consultar</text>

  <!-- Cursor -->
  <path d="M250 170 L250 195 L262 185 L268 200 L274 197 L268 182 L285 182 Z" fill="#1E293B"/>

  <!-- Decorative -->
  <circle cx="270" cy="50" r="20" fill="#DBEAFE"/>
  <text x="270" y="56" text-anchor="middle" font-family="Inter, sans-serif" font-size="14" font-weight="700" fill="#2563EB">?</text>
</svg>
