<svg xmlns="http://www.w3.org/2000/svg" viewBox="0 0 560 420" fill="none">
  <rect width="560" height="420" rx="24" fill="#EFF6FF"/>
  <ellipse cx="280" cy="360" rx="220" ry="20" fill="#DBEAFE" opacity="0.6"/>

  <!-- Road -->
  <rect x="60" y="310" width="440" height="8" rx="4" fill="#CBD5E1"/>
  <rect x="100" y="313" width="40" height="3" rx="1.5" fill="#fff" opacity="0.7"/>
  <rect x="200" y="313" width="40" height="3" rx="1.5" fill="#fff" opacity="0.7"/>
  <rect x="300" y="313" width="40" height="3" rx="1.5" fill="#fff" opacity="0.7"/>
  <rect x="400" y="313" width="40" height="3" rx="1.5" fill="#fff" opacity="0.7"/>

  <!-- Car body -->
  <path d="M120 280h320l-20-60c-4-12-14-20-28-20H168c-14 0-24 8-28 20l-20 60z" fill="#2563EB"/>
  <path d="M160 200h240l30 40H130l30-40z" fill="#3B82F6"/>
  <rect x="175" y="210" width="70" height="45" rx="6" fill="#DBEAFE" opacity="0.8"/>
  <rect x="315" y="210" width="70" height="45" rx="6" fill="#DBEAFE" opacity="0.8"/>

  <!-- Wheels -->
  <circle cx="180" cy="290" r="28" fill="#1E293B"/>
  <circle cx="180" cy="290" r="14" fill="#64748B"/>
  <circle cx="380" cy="290" r="28" fill="#1E293B"/>
  <circle cx="380" cy="290" r="14" fill="#64748B"/>

  <!-- Headlight -->
  <rect x="430" y="255" width="16" height="10" rx="3" fill="#FDE68A"/>

  <!-- Chart panel -->
  <rect x="380" y="60" width="150" height="120" rx="16" fill="#fff" stroke="#E2E8F0" stroke-width="2"/>
  <text x="455" y="88" text-anchor="middle" font-family="Inter, sans-serif" font-size="11" fill="#64748B">Tabela FIPE</text>
  <rect x="400" y="100" width="20" height="50" rx="4" fill="#93C5FD"/>
  <rect x="430" y="85" width="20" height="65" rx="4" fill="#60A5FA"/>
  <rect x="460" y="75" width="20" height="75" rx="4" fill="#2563EB"/>
  <rect x="490" y="90" width="20" height="60" rx="4" fill="#3B82F6"/>
  <path d="M400 155 L430 140 L460 125 L490 135" stroke="#10B981" stroke-width="2.5" fill="none" stroke-linecap="round"/>
  <circle cx="490" cy="135" r="4" fill="#10B981"/>

  <!-- Decorative circles -->
  <circle cx="80" cy="100" r="40" fill="#DBEAFE" opacity="0.5"/>
  <circle cx="100" cy="160" r="20" fill="#BFDBFE" opacity="0.4"/>
</svg>
